<svg width="226" height="48" viewBox="0 0 226 48" fill="none" xmlns="http://www.w3.org/2000/svg">
<g clip-path="url(#clip0_231_1591)">
<path d="M44.4574 0H3.06073C1.37033 0 0 1.38423 0 3.09176V44.9082C0 46.6158 1.37033 48 3.06073 48H44.4574C46.1478 48 47.5181 46.6158 47.5181 44.9082V3.09176C47.5181 1.38423 46.1478 0 44.4574 0Z" fill="#2A85C5"/>
<path d="M29.615 6.95532H38.718C39.2258 6.95532 39.7128 7.1591 40.0719 7.52181C40.431 7.88453 40.6327 8.37648 40.6327 8.88944V18.0847L29.615 6.95532Z" fill="#C42C84"/>
<path d="M40.6327 24H8.8002C8.2932 24 7.80689 23.7969 7.44795 23.4352C7.089 23.0735 6.88673 22.5827 6.8855 22.0706V8.89413C6.88673 8.38199 7.089 7.89125 7.44795 7.52955C7.80689 7.16785 8.2932 6.96472 8.8002 6.96472H23.7591L40.6327 24Z" fill="white"/>
<path d="M40.6327 24V39.1106C40.6327 39.6235 40.431 40.1155 40.0719 40.4782C39.7128 40.8409 39.2258 41.0447 38.718 41.0447H25.6738C25.166 41.0447 24.679 40.8409 24.3199 40.4782C23.9608 40.1155 23.7591 39.6235 23.7591 39.1106V24H40.6327Z" fill="white"/>
<path opacity="0.58" d="M40.6327 24L23.7591 27.7129V24H40.6327Z" fill="#D9D9D9"/>
<path d="M99.7228 12H103.916C104.148 12 104.371 12.0932 104.535 12.2591C104.699 12.425 104.791 12.6501 104.791 12.8847V17.12L99.7228 12Z" fill="#C42C84"/>
<path d="M72.7167 12H76.9095C77.0255 11.9987 77.1407 12.0207 77.2482 12.0645C77.3558 12.1084 77.4538 12.1733 77.5365 12.2555C77.6192 12.3377 77.685 12.4356 77.7301 12.5436C77.7752 12.6516 77.7987 12.7675 77.7993 12.8847V17.12L72.7167 12Z" fill="#C42C84"/>
<path d="M69.9076 29.7788V34.113H67.336C65.5005 34.113 64.075 33.6424 63.0454 32.753C62.0158 31.8635 61.5081 30.3671 61.5081 28.3153V21.68H59.5002V17.4447H61.4941V13.3788H66.5534V17.44H69.8796V21.6753H66.5673V28.3765C66.5493 28.5711 66.5714 28.7674 66.6324 28.9529C66.6933 29.1384 66.7917 29.3091 66.9214 29.4541C67.2653 29.7006 67.6846 29.8156 68.1047 29.7788H69.9076Z" fill="#1B2336"/>
<path d="M77.7714 17.44H72.7167V34.1129H77.7714V17.44Z" fill="#1B2336"/>
<path d="M91.5283 34.1129L86.497 27.12V34.1129H81.4424V11.9953H86.497V24.2306L91.5004 17.4494H97.743L90.8761 25.8071L97.7989 34.1129H91.5283Z" fill="#1B2336"/>
<path d="M104.777 17.44H99.7228V34.1129H104.777V17.44Z" fill="#1B2336"/>
<path d="M109.725 33.5718H117.705V34.1129H109.133V13.0776H109.725V33.5718Z" fill="#1B2336"/>
<path d="M132.305 32.4094C132.905 31.9627 133.41 31.3996 133.79 30.7531C134.171 30.1066 134.42 29.3898 134.523 28.6447H135.101C134.871 30.2641 134.038 31.7337 132.771 32.753C131.34 33.8432 129.578 34.3971 127.787 34.32C126.402 34.3463 125.035 34.0056 123.822 33.3318C122.651 32.6695 121.7 31.6725 121.087 30.4659C120.401 29.0967 120.061 27.5767 120.1 26.0424C120.059 24.5195 120.39 23.0098 121.064 21.6471C121.678 20.4402 122.628 19.442 123.799 18.7765C125.013 18.1068 126.38 17.7678 127.763 17.793C129.16 17.7506 130.541 18.0974 131.756 18.7953C132.808 19.4064 133.674 20.2986 134.257 21.3741C134.807 22.3955 135.097 23.5388 135.101 24.7012C135.101 25.4165 135.101 25.9577 135.068 26.3153H120.659C120.626 27.766 120.979 29.199 121.679 30.4659C122.283 31.5333 123.181 32.3999 124.265 32.96C125.346 33.5103 126.543 33.7911 127.754 33.7788C129.379 33.8408 130.979 33.3594 132.305 32.4094ZM124.274 19.1294C123.191 19.6895 122.292 20.5562 121.688 21.6235C120.985 22.8898 120.63 24.3227 120.659 25.7741H134.556C134.697 24.3519 134.429 22.9186 133.782 21.6471C133.208 20.5735 132.322 19.7032 131.243 19.153C130.158 18.605 128.962 18.3197 127.749 18.3197C126.536 18.3197 125.34 18.605 124.255 19.153L124.274 19.1294Z" fill="#1B2336"/>
<path d="M139.629 21.647C140.245 20.4385 141.201 19.4412 142.377 18.7812C143.62 18.0979 145.016 17.7525 146.43 17.7788C148.099 17.7274 149.738 18.2372 151.089 19.2282C152.32 20.1392 153.218 21.4366 153.642 22.9176V17.9765H154.201V34.1129H153.637V29.1765C153.213 30.6575 152.316 31.9549 151.084 32.8659C149.733 33.8569 148.095 34.3667 146.426 34.3153C145.011 34.3437 143.614 33.9982 142.373 33.3129C141.197 32.6515 140.241 31.6546 139.624 30.447C138.942 29.0815 138.606 27.5665 138.646 26.0376C138.61 24.5147 138.948 23.0064 139.629 21.647ZM152.715 22.0047C152.124 20.8757 151.231 19.9367 150.139 19.2941C149.008 18.6323 147.719 18.2954 146.412 18.32C145.085 18.291 143.774 18.6156 142.61 19.2612C141.531 19.8809 140.661 20.8137 140.113 21.9388C139.494 23.2244 139.189 24.6413 139.223 26.0706C139.188 27.5015 139.493 28.92 140.113 30.207C140.661 31.3321 141.531 32.265 142.61 32.8847C143.774 33.5304 145.085 33.8551 146.412 33.8259C147.716 33.8607 149.004 33.5353 150.139 32.8847C151.24 32.2281 152.134 31.2683 152.715 30.1176C153.356 28.8668 153.676 27.4739 153.647 26.0659C153.679 24.6515 153.359 23.2516 152.715 21.9953V22.0047Z" fill="#1B2336"/>
<path d="M166.122 17.6188V18.2777H165.848C164.296 18.2431 162.784 18.7706 161.585 19.7647C160.411 20.753 159.826 22.3435 159.829 24.5365V34.113H159.237V17.9765H159.829V21.8918C160.459 19.0432 162.557 17.6188 166.122 17.6188Z" fill="#1B2336"/>
<path d="M180.709 19.3836C181.911 20.5538 182.513 22.3263 182.516 24.7012V34.113H181.948V24.64C181.948 22.5287 181.425 20.9208 180.378 19.8165C179.331 18.7122 177.904 18.1585 176.097 18.1553C175.248 18.1188 174.401 18.2681 173.615 18.593C172.828 18.9179 172.121 19.4107 171.54 20.0377C170.394 21.2926 169.821 23.1294 169.821 25.5483V34.113H169.23V17.9765H169.821V22.2118C170.123 20.8277 170.923 19.6064 172.067 18.7859C173.257 17.9811 174.665 17.5699 176.097 17.6094C176.944 17.5803 177.788 17.7222 178.58 18.0269C179.372 18.3315 180.095 18.7927 180.709 19.3836Z" fill="#1B2336"/>
<path d="M187.147 13.647C187.071 13.5698 187.012 13.4778 186.973 13.3767C186.934 13.2755 186.915 13.1674 186.919 13.0588C186.915 12.951 186.934 12.8435 186.973 12.7432C187.012 12.6428 187.071 12.5517 187.147 12.4753C187.218 12.4024 187.303 12.3451 187.397 12.307C187.49 12.2689 187.591 12.2509 187.692 12.2541C187.794 12.2508 187.895 12.2688 187.99 12.3068C188.084 12.3449 188.17 12.4022 188.242 12.4753C188.314 12.5531 188.371 12.6449 188.407 12.7451C188.444 12.8454 188.461 12.952 188.456 13.0588C188.461 13.1663 188.444 13.2737 188.408 13.3747C188.371 13.4757 188.314 13.5683 188.242 13.647C188.169 13.7192 188.084 13.776 187.989 13.8139C187.895 13.8519 187.794 13.8704 187.692 13.8682C187.591 13.8703 187.491 13.8518 187.397 13.8138C187.304 13.7758 187.218 13.7191 187.147 13.647ZM187.99 17.9906V34.1129H187.399V17.9765L187.99 17.9906Z" fill="#1B2336"/>
<path d="M204.486 19.3836C205.691 20.5538 206.294 22.3263 206.294 24.7012V34.113H205.73V24.64C205.73 22.5287 205.207 20.9208 204.16 19.8165C203.114 18.7122 201.679 18.1585 199.856 18.1553C199.008 18.1191 198.162 18.2686 197.376 18.5935C196.59 18.9184 195.884 19.4111 195.304 20.0377C194.158 21.2926 193.585 23.1294 193.585 25.5483V34.113H192.994V17.9765H193.585V22.2118C193.886 20.8277 194.687 19.6064 195.831 18.7859C197.019 17.9817 198.426 17.5706 199.856 17.6094C200.706 17.577 201.554 17.7173 202.349 18.022C203.145 18.3268 203.871 18.7898 204.486 19.3836Z" fill="#1B2336"/>
<path d="M222.879 19.2C224.104 20.0961 225.002 21.3768 225.432 22.8423V17.9765H226V34.7106C226.025 36.0696 225.683 37.4099 225.012 38.5882C224.399 39.6563 223.504 40.5312 222.427 41.1153C221.346 41.6916 220.141 41.9891 218.919 41.9812C217.206 42.0471 215.518 41.5519 214.106 40.5694C212.846 39.6176 211.931 38.2731 211.502 36.7435H212.094C212.506 38.1275 213.353 39.3384 214.507 40.1929C215.81 41.0819 217.362 41.5256 218.933 41.4588C220.09 41.4763 221.232 41.1875 222.245 40.6212C223.226 40.0752 224.034 39.2593 224.574 38.2682C225.164 37.1805 225.46 35.9551 225.432 34.7153V29.2141C225.01 30.6912 224.112 31.9834 222.879 32.8847C221.524 33.8678 219.887 34.3723 218.22 34.32C216.806 34.3484 215.408 34.0029 214.167 33.3176C212.992 32.6562 212.036 31.6594 211.418 30.4518C210.74 29.085 210.406 27.5706 210.445 26.0423C210.406 24.5192 210.739 23.0098 211.414 21.647C212.03 20.4385 212.986 19.4412 214.162 18.7812C215.405 18.0979 216.801 17.7525 218.215 17.7788C219.882 17.7235 221.52 18.2228 222.879 19.2ZM224.5 21.9953C223.909 20.8701 223.018 19.9344 221.928 19.2941C220.797 18.6332 219.508 18.2964 218.201 18.32C216.874 18.291 215.563 18.6156 214.4 19.2612C213.321 19.8809 212.451 20.8137 211.903 21.9388C211.285 23.2248 210.982 24.6416 211.018 26.0706C210.981 27.5011 211.284 28.9196 211.903 30.207C212.451 31.3321 213.321 32.265 214.4 32.8847C215.563 33.5304 216.874 33.8551 218.201 33.8259C219.505 33.86 220.794 33.5346 221.928 32.8847C223.028 32.228 223.921 31.2681 224.5 30.1176C225.143 28.8677 225.463 27.4741 225.432 26.0659C225.467 24.6513 225.146 23.2508 224.5 21.9953Z" fill="#1B2336"/>
</g>
<defs>
<clipPath id="clip0_231_1591">
<rect width="226" height="48" fill="white"/>
</clipPath>
</defs>
</svg>
